PathFileType	3	(X/Y/Z)	D:\Vicon Setup\UG\Test1\New Session\NewSession13.trc
DataRate	CameraRate	NumFrames	NumMarkers	Units	OrigDataRate	OrigDataStartFrame	OrigNumFrames
100.0	100.0	7	27	mm	100.0	663	333	
Frame#	Time	Sternum			LShoulder			RShoulder			LASIS			RASIS			RPSIS			LPSIS			RKneeLateral			RKneeMedial			RFibulaHead			RMidShank			RAnkleLateral			RAnkleMedial			RHeel			RMT5			RMT2			RToe			LKneeLateral			LKneeMedial			LFibulaHead			LMidShank			LAnkleLateral			LAnkleMedial			LHeel			LMT5			LMT2			LToe			
		X1	Y1	Z1	X2	Y2	Z2	X3	Y3	Z3	X4	Y4	Z4	X5	Y5	Z5	X6	Y6	Z6	X7	Y7	Z7	X8	Y8	Z8	X9	Y9	Z9	X10	Y10	Z10	X11	Y11	Z11	X12	Y12	Z12	X13	Y13	Z13	X14	Y14	Z14	X15	Y15	Z15	X16	Y16	Z16	X17	Y17	Z17	X18	Y18	Z18	X19	Y19	Z19	X20	Y20	Z20	X21	Y21	Z21	X22	Y22	Z22	X23	Y23	Z23	X24	Y24	Z24	X25	Y25	Z25	X26	Y26	Z26	X27	Y27	Z27	
663	6.62	-243.43492	1335.1569	254.9803	-45.165531	1405.7603	179.38901	-413.36444	1372.6149	150.62303	-104.01416	952.54352	207.73245	-361.0611	976.6142	200.71106	-294.90134	983.6123	27.634613	-163.77863	983.19226	28.483273	-387.61011	518.27655	296.11142	-254.53728	505.13214	323.63916	-390.73752	439.81659	320.97772	-303.20264	287.88046	378.57492	-358.01959	81.351326	375.55566	-281.29663	122.66796	415.04578	-295.35129	55.126205	317.50937	-390.26282	42.27367	531.33777	-328.21927	86.810623	526.42499	-328.47113	92.508102	568.64337	-71.555763	499.70819	27.579176	-197.43034	477.0209	43.427589	-68.300499	452.78357	-18.381567	-149.20163	307.26752	-77.997032	-108.24003	173.15314	-253.02524	-186.08849	165.25432	-205.31964	-170.31233	195.22478	-321.04556	-75.565544	42.600555	-204.63446	-136.58191	52.13728	-171.45923	-146.40369	41.280338	-150.07295
664	6.63	-245.61699	1336.3461	270.64453	-47.265495	1407.2123	194.88393	-415.36862	1372.6443	166.41008	-106.11221	952.6225	223.98859	-362.60922	978.94672	217.74092	-296.75674	985.30963	44.626461	-165.41756	983.10492	44.970688	-390.53949	520.396	313.49393	-258.03226	503.71432	327.83954	-392.63773	441.0625	336.47717	-304.61053	287.54346	387.80212	-358.13599	81.534737	377.60715	-281.21399	122.03661	418.1358	-295.85266	55.704578	318.21844	-390.12207	38.127659	534.27271	-328.5737	82.6717	529.97388	-327.54654	86.44381	572.97449	-69.265572	497.23972	51.725174	-194.5282	473.1041	68.601532	-65.890953	451.61755	5.0044737	-146.84688	307.7514	-57.853828	-106.56714	180.10048	-237.23422	-184.06648	169.03398	-190.0759	-169.59079	208.77718	-301.89233	-75.745033	44.826355	-200.81538	-136.56094	52.833893	-166.71526	-146.32899	40.689522	-147.39604
665	6.64	-247.58612	1337.787	286.19864	-49.677689	1408.6349	209.39275	-417.85159	1373.5244	182.41788	-108.23081	952.75299	239.53824	-364.25073	981.39758	234.24883	-298.3873	987.42865	61.118973	-166.89716	983.30054	60.946541	-392.96674	522.42993	330.74551	-260.60123	506.87976	340.39371	-394.33301	441.98419	350.34793	-305.47098	287.39896	395.86703	-357.72934	81.940292	379.28665	-280.31085	121.46775	420.1188	-295.94232	56.089905	318.63177	-389.21658	36.463326	536.47961	-325.89145	79.491135	532.68134	-324.39325	81.471031	575.96722	-67.534088	494.44345	76.689148	-191.90932	468.53845	96.467209	-64.207687	449.94437	29.993658	-144.16119	307.97449	-36.549698	-104.80273	187.77974	-220.16225	-181.91476	173.76285	-173.42331	-168.57242	223.1938	-280.46216	-75.67878	48.459896	-196.41559	-135.96672	54.354588	-160.96841	-145.79366	40.049946	-143.41281
666	6.65	-249.20436	1339.408	301.66562	-51.442738	1410.7609	224.37456	-419.63828	1374.4623	198.27586	-110.25955	953.08801	254.49565	-366.09656	983.8363	250.36559	-299.63962	989.53461	77.184128	-168.20688	983.7403	76.522171	-395.09048	523.86731	345.86755	-263.27341	509.69589	353.48361	-395.70361	442.45987	362.36478	-305.82928	287.22791	402.86536	-357.09024	82.57048	380.67468	-279.46014	121.03035	421.9426	-295.952	56.391857	318.97879	-389.81311	35.099209	537.98193	-325.41321	77.066063	535.06342	-323.64706	77.499275	578.41296	-66.264236	491.64709	102.18779	-189.42686	463.72379	126.42777	-62.358856	448.69739	56.252987	-142.18854	308.93784	-13.982274	-103.00234	196.34381	-201.61539	-179.50264	179.25371	-155.33055	-167.10977	238.16396	-256.66751	-75.144722	53.517502	-191.35315	-134.73969	56.450142	-153.45093	-145.12454	39.136478	-137.57988
667	6.66	-250.47681	1341.0936	316.90762	-53.407932	1412.6306	238.18373	-421.42804	1375.7078	214.44139	-112.23401	953.67737	269.07767	-368.13947	986.27637	266.1604	-300.67456	991.62048	92.837196	-169.48396	984.21838	91.720314	-397.24341	524.15637	358.34384	-265.62524	512.33923	367.94629	-397.08798	442.58356	372.84479	-306.00174	286.76385	408.48346	-356.84943	83.044334	381.65076	-279.16397	120.83321	423.85468	-296.10437	56.757603	319.18277	-390.85965	33.421448	538.86316	-326.89236	74.647011	536.7807	-324.3743	74.149963	580.09344	-64.82505	489.45044	129.44698	-187.27931	459.47653	157.11742	-60.515633	447.61285	83.460976	-140.75777	310.76889	9.6284771	-101.54832	205.50824	-180.82965	-177.86774	185.68294	-135.48518	-165.8795	253.09193	-230.22906	-75.264961	60.321171	-184.1613	-133.28329	59.426865	-144.00584	-144.21843	38.018795	-130.56474
668	6.67	-251.38057	1342.7776	331.98141	-54.778744	1414.912	252.29794	-423.05569	1376.989	230.71288	-114.00263	954.67761	283.38223	-370.08719	988.67468	281.67365	-301.91101	993.62067	108.14529	-170.86288	984.92639	106.48565	-398.80765	523.97705	368.50693	-267.74298	514.79291	383.51114	-398.46811	442.27582	381.37695	-306.31186	286.26266	413.69446	-356.23157	83.275856	382.43283	-278.84503	120.24075	424.89056	-296.03717	56.773983	319.33609	-391.81589	33.16964	539.76263	-326.94394	72.813965	537.97076	-324.34952	71.277969	581.30743	-63.205475	488.01831	157.57002	-185.68547	456.69476	187.53412	-59.220013	446.99142	111.69356	-139.62511	313.29645	34.708553	-100.41803	214.46649	-158.04114	-176.76936	192.2187	-113.4865	-164.98233	267.01556	-201.03662	-75.366913	68.371201	-174.26578	-131.90987	64.337875	-132.13553	-142.98199	37.484432	-122.19902
669	6.68	-252.0175	1344.501	346.76965	-56.292011	1417.0112	265.30771	-424.56403	1378.5812	247.08447	-116.1047	956.89539	298.74283	-371.85251	991.01215	296.83282	-303.32059	995.70813	122.90845	-172.65659	985.77478	120.98215	-399.9682	523.74109	375.81268	-269.67331	514.96478	397.41705	-399.70798	441.8598	388.25797	-306.88477	285.80707	418.6951	-355.67929	83.621674	383.08746	-278.44028	120.21059	426.28278	-295.81387	57.069355	319.54297	-392.42749	32.592228	540.15753	-327.18011	71.169647	538.99274	-324.87213	68.403961	582.18372	-61.843166	487.41467	186.07716	-185.01588	455.89059	216.92062	-57.709984	447.46481	138.99657	-138.73747	316.18915	60.823605	-99.683464	222.77721	-133.62422	-175.58385	197.94197	-89.478981	-165.32054	278.59686	-169.86763	-75.143463	77.107841	-161.44919	-130.74358	70.670425	-117.95423	-142.78923	39.350521	-110.71079
